#!OML:ASF F:\VICON\USERDATA\INSTALL\Justin_Nancy\Justin_Nancy.ASF
:FULLY-SPECIFIED
:DEGREES
1
root 12.4632 15.9972 -22.0527 -9.04532 -20.8423 14.0424
lowerback 17.4429 0.0154661 -5.81181
upperback 2.93596 -1.20413 -1.47773
thorax -6.53133 -0.491648 1.99053
lowerneck -15.9149 -0.904691 -10.9321
upperneck 15.2994 0.178817 6.48932
head 7.29717 0.0490093 3.95338
rclavicle -2.38542e-015 -1.82882e-014
rhumerus -54.181 13.0113 -93.0625
rradius 114.676
rwrist -29.8464
rhand -9.08887 26.0695
rfingers 7.12502
rthumb 16.8609 -3.21847
lclavicle -2.38542e-015 -1.82882e-014
lhumerus -46.3134 -10.6122 88.7273
lradius 121.184
lwrist 43.6898
lhand -1.88831 10.4766
lfingers 7.12502
lthumb 23.7805 39.025
rfemur -41.1547 -9.40838 21.0629
rtibia 85.1376
rfoot -11.1433 -9.76811
rtoes 0
lfemur -16.8636 5.27229 -18.3747
ltibia 47.7611
lfoot -13.2473 2.06534
ltoes -18.1106
2
root 12.4169 16.0103 -21.6187 -9.16614 -21.1576 14.7618
lowerback 17.6568 -0.226236 -6.53273
upperback 2.87951 -1.67393 -1.43203
thorax -6.64964 -0.6992 2.55611
lowerneck -16.5884 -0.74349 -11.0542
upperneck 15.8649 0.563207 6.12671
head 7.56673 0.186067 3.91091
rclavicle -2.0276e-014 1.59028e-015
rhumerus -54.9639 12.5689 -92.727
rradius 114.65
rwrist -29.8247
rhand -9.24549 26.1113
rfingers 7.12502
rthumb 16.7101 -3.18952
lclavicle -2.0276e-014 1.59028e-015
lhumerus -44.6104 -9.76913 87.5224
lradius 121.195
lwrist 43.2179
lhand -2.56833 10.4769
lfingers 7.12502
lthumb 23.1282 39.1086
rfemur -42.1849 -9.76732 22.0359
rtibia 81.4331
rfoot -11.1912 -8.87397
rtoes 0
lfemur -16.1782 6.02372 -19.3369
ltibia 49.3978
lfoot -13.0394 -3.11004
ltoes -7.90867
3
root 12.3696 16.024 -21.2077 -8.13981 -21.5576 13.8429
lowerback 17.6216 -0.740765 -5.97565
upperback 2.55163 -2.20032 -0.747812
thorax -6.9303 -0.941967 3.09815
lowerneck -16.8372 -0.512616 -11.5291
upperneck 16.1181 1.10043 5.72848
head 7.6476 0.369712 3.91987
rclavicle -6.20208e-014 9.54166e-015
rhumerus -55.8583 12.6796 -92.3371
rradius 114.713
rwrist -30.3456
rhand -9.30641 26.6309
rfingers 7.12502
rthumb 16.6515 -2.67486
lclavicle -6.20208e-014 9.54166e-015
lhumerus -43.6044 -8.10072 86.6895
lradius 121.335
lwrist 43.7077
lhand -2.62473 9.44201
lfingers 7.12502
lthumb 23.0741 38.0805
rfemur -43.423 -9.73775 24.8558
rtibia 76.8432
rfoot -11.6029 -8.96487
rtoes -4.0394
lfemur -16.7663 6.36018 -18.4655
ltibia 51.5844
lfoot -10.7291 -6.08313
ltoes 3.1837
4
root 12.3178 16.0601 -20.7721 -7.96846 -21.7498 13.8395
lowerback 17.9354 -0.967916 -5.90858
upperback 2.41327 -2.49868 -0.559226
thorax -7.21715 -1.0723 3.34461
lowerneck -17.0372 -0.471863 -11.4773
upperneck 16.3149 1.23225 5.38304
head 7.74043 0.397311 3.81547
rclavicle -5.24792e-014 7.95139e-015
rhumerus -56.558 11.7939 -92.0864
rradius 115.083
rwrist -31.0924
rhand -9.09214 26.2103
rfingers 7.12502
rthumb 16.8577 -3.07799
lclavicle -5.24792e-014 7.95139e-015
lhumerus -42.8176 -7.65313 86.2286
lradius 121.697
lwrist 43.4316
lhand -4.52827 8.56757
lfingers 7.12502
lthumb 21.2466 37.4231
rfemur -43.5453 -10.1213 26.354
rtibia 71.9063
rfoot -12.3314 -7.86697
rtoes -7.51238
lfemur -16.6911 6.50636 -18.4933
ltibia 53.729
lfoot -7.17993 -9.56449
ltoes 13.8327
5
root 12.2569 16.1138 -20.3334 -7.96018 -22.0425 13.732
lowerback 18.6458 -1.04081 -5.68186
upperback 2.26908 -2.5861 -0.348621
thorax -7.75314 -1.0949 3.49523
lowerneck -17.3851 -0.530434 -11.4708
upperneck 16.5378 1.25623 5.058
head 7.87808 0.372326 3.71588
rclavicle 3.22031e-014 -1.11319e-014
rhumerus -58.1587 11.0454 -91.8531
rradius 116.208
rwrist -31.9365
rhand -8.96354 25.7843
rfingers 7.12502
rthumb 16.9815 -3.49341
lclavicle 3.22031e-014 -1.11319e-014
lhumerus -42.0333 -7.53168 85.9427
lradius 121.962
lwrist 44.3302
lhand -5.43166 8.34879
lfingers 7.12502
lthumb 20.3786 37.2995
rfemur -43.1508 -10.465 27.9205
rtibia 66.4453
rfoot -12.442 -6.25865
rtoes -9.26835
lfemur -16.5414 7.08947 -18.2739
ltibia 56.203
lfoot -14.5008 0.30058
ltoes -38.8733
6
root 12.183 16.1754 -19.8999 -7.76951 -22.3446 13.1296
lowerback 19.5526 -1.2065 -5.34794
upperback 2.0631 -2.74171 0.271619
thorax -8.44175 -1.13913 4.06265
lowerneck -17.8915 -0.570035 -11.9242
upperneck 16.7719 1.46267 4.67929
head 8.03167 0.397913 3.69466
rclavicle 9.89948e-014 -9.54166e-015
rhumerus -59.2886 11.029 -91.4278
rradius 116.822
rwrist -32.3236
rhand -8.81794 26.2056
rfingers 7.12502
rthumb 17.1217 -3.05998
lclavicle 9.89948e-014 -9.54166e-015
lhumerus -41.7981 -6.82576 86.1133
lradius 122.51
lwrist 45.4338
lhand -5.34843 8.57522
lfingers 7.12502
lthumb 20.4586 37.5174
rfemur -42.4512 -10.8017 30.0227
rtibia 60.5739
rfoot -11.8255 -4.72912
rtoes -10.5856
lfemur -16.6257 7.91366 -17.342
ltibia 58.7844
lfoot -10.6221 -3.50177
ltoes -37.8099
7
root 12.1038 16.2245 -19.4718 -7.52304 -22.572 12.6492
lowerback 19.2099 -1.45157 -4.63348
upperback 2.58613 -2.87628 0.338888
thorax -7.69956 -1.26447 3.73125
lowerneck -18.5829 -0.746435 -11.9048
upperneck 16.5432 1.30906 4.68147
head 8.0893 0.339177 3.67759
rclavicle 1.19271e-014 -1.11319e-014
rhumerus -58.8233 10.5115 -91.5997
rradius 116.997
rwrist -32.0355
rhand -8.48437 26.549
rfingers 7.12502
rthumb 17.4427 -2.68845
lclavicle 1.19271e-014 -1.11319e-014
lhumerus -40.5645 -6.89688 85.5689
lradius 123.029
lwrist 46.1087
lhand -5.50093 9.27028
lfingers 7.12502
lthumb 20.312 38.2281
rfemur -41.6051 -11.2464 31.9802
rtibia 54.4998
rfoot -10.5746 -3.62404
rtoes -10.2678
lfemur -17.2414 8.68589 -16.3405
ltibia 61.348
lfoot -5.35517 -6.98061
ltoes -35.8895
8
root 12.0188 16.2712 -19.0358 -7.14853 -22.9825 12.015
lowerback 18.8639 -1.66565 -3.87274
upperback 2.6909 -2.97472 0.449374
thorax -7.4219 -1.34322 3.4226
lowerneck -17.9043 -0.746667 -11.9704
upperneck 16.0722 1.17776 4.9776
head 7.82099 0.313956 3.75614
rclavicle 1.06549e-013 -1.27222e-014
rhumerus -59.3352 10.2073 -92.0016
rradius 117.494
rwrist -31.5352
rhand -7.87222 26.3162
rfingers 7.12502
rthumb 18.0318 -2.8679
lclavicle 1.06549e-013 -1.27222e-014
lhumerus -40.2252 -7.17377 85.2362
lradius 123.501
lwrist 46.2903
lhand -5.18638 9.71248
lfingers 7.12502
lthumb 20.6143 38.6378
rfemur -40.4236 -11.7392 34.0368
rtibia 48.199
rfoot -7.88514 -2.54935
rtoes -1.14604
lfemur -18.1969 9.52221 -15.0414
ltibia 63.6405
lfoot 1.37112 -9.57154
ltoes -31.9871
9
root 11.9228 16.3107 -18.5859 -7.01882 -23.6607 11.5436
lowerback 18.2387 -1.83923 -3.20082
upperback 3.03431 -3.04565 0.423554
thorax -6.74303 -1.42098 2.98891
lowerneck -17.3608 -0.749191 -12.1093
upperneck 15.4067 1.04775 5.47238
head 7.51117 0.3096 3.91141
rclavicle -9.54166e-015 -1.59028e-015
rhumerus -59.6312 10.2619 -92.6701
rradius 117.984
rwrist -30.8646
rhand -7.69914 26.5724
rfingers 7.12502
rthumb 18.1983 -2.59627
lclavicle -9.54166e-015 -1.59028e-015
lhumerus -39.8146 -7.43959 84.8349
lradius 123.772
lwrist 45.7527
lhand -4.37111 8.67788
lfingers 7.12502
lthumb 21.3976 37.5163
rfemur -38.6765 -12.2942 35.9223
rtibia 41.9009
rfoot -5.97205 -2.39087
rtoes -1.21379
lfemur -18.7907 10.4909 -13.7873
ltibia 65.4362
lfoot 7.71585 -12.5316
ltoes -28.0944
10
root 11.8342 16.314 -18.1147 -7.24797 -24.3555 11.3943
lowerback 18.0067 -1.8473 -2.81377
upperback 3.3336 -2.97907 0.360187
thorax -6.32403 -1.41344 2.66644
lowerneck -17.3055 -0.979475 -12.2
upperneck 15.4109 0.706437 5.7018
head 7.53311 0.162906 3.96646
rclavicle -3.37934e-014 0
rhumerus -59.8422 10.3448 -93.2015
rradius 118.368
rwrist -29.8976
rhand -7.61124 27.07
rfingers 7.12502
rthumb 18.2829 -2.09077
lclavicle -3.37934e-014 0
lhumerus -39.8698 -8.09897 84.8885
lradius 124.089
lwrist 44.3309
lhand -4.10833 7.35712
lfingers 7.12502
lthumb 21.6499 36.1667
rfemur -36.5275 -13.4922 37.6844
rtibia 35.5755
rfoot -2.79757 -1.99567
rtoes -3.78539
lfemur -18.8564 11.0632 -12.8921
ltibia 66.9077
lfoot 11.6299 -16.7791
ltoes -24.128
